<svg width="16" height="16" viewBox="0 0 16 16" fill="none" xmlns="http://www.w3.org/2000/svg">
<path d="M2.66666 12V9.53333C2.66666 8.98107 2.21895 8.53333 1.66666 8.53333H1.33333V7.46667H1.66666C2.21895 7.46667 2.66666 7.01893 2.66666 6.46667V4C2.66666 2.89543 3.56209 2 4.66666 2H5.33333V3.33333H4.66666C4.29847 3.33333 3.99999 3.63181 3.99999 4V6.73333C3.99999 7.32387 3.61605 7.8248 3.08415 8C3.61605 8.1752 3.99999 8.67613 3.99999 9.26667V12C3.99999 12.3682 4.29847 12.6667 4.66666 12.6667H5.33333V14H4.66666C3.56209 14 2.66666 13.1046 2.66666 12ZM13.3333 9.53333V12C13.3333 13.1046 12.4379 14 11.3333 14H10.6667V12.6667H11.3333C11.7015 12.6667 12 12.3682 12 12V9.26667C12 8.67613 12.3839 8.1752 12.9159 8C12.3839 7.8248 12 7.32387 12 6.73333V4C12 3.63181 11.7015 3.33333 11.3333 3.33333H10.6667V2H11.3333C12.4379 2 13.3333 2.89543 13.3333 4V6.46667C13.3333 7.01893 13.7811 7.46667 14.3333 7.46667H14.6667V8.53333H14.3333C13.7811 8.53333 13.3333 8.98107 13.3333 9.53333Z" fill="currentcolor"/>
</svg>
