<svg width="16" height="16" viewBox="0 0 16 16" fill="none" xmlns="http://www.w3.org/2000/svg">
<path d="M4.86094 13.8825L1.3335 14.6663L2.11737 11.1389C1.61712 10.2034 1.3335 9.13467 1.3335 7.99967C1.3335 4.31777 4.31826 1.33301 8.00016 1.33301C11.682 1.33301 14.6668 4.31777 14.6668 7.99967C14.6668 11.6815 11.682 14.6663 8.00016 14.6663C6.86516 14.6663 5.79643 14.3827 4.86094 13.8825ZM5.054 12.4737L5.48968 12.7067C6.25515 13.116 7.1105 13.333 8.00016 13.333C10.9457 13.333 13.3335 10.9452 13.3335 7.99967C13.3335 5.05415 10.9457 2.66634 8.00016 2.66634C5.05464 2.66634 2.66683 5.05415 2.66683 7.99967C2.66683 8.88934 2.88382 9.74467 3.29316 10.5101L3.52614 10.9458L3.0896 12.9102L5.054 12.4737ZM4.66683 7.99967H6.00016C6.00016 9.10427 6.89556 9.99967 8.00016 9.99967C9.10476 9.99967 10.0002 9.10427 10.0002 7.99967H11.3335C11.3335 9.84061 9.8411 11.333 8.00016 11.333C6.15922 11.333 4.66683 9.84061 4.66683 7.99967Z" fill="currentcolor"/>
</svg>
