<svg width="17" height="17" viewBox="0 0 17 17" fill="none" xmlns="http://www.w3.org/2000/svg">
<path d="M8.15713 1.54272C11.839 1.54272 14.8238 4.52749 14.8238 8.20939C14.8238 11.8913 11.839 14.8761 8.15713 14.8761C4.47523 14.8761 1.49046 11.8913 1.49046 8.20939H2.8238C2.8238 11.1549 5.21161 13.5427 8.15713 13.5427C11.1027 13.5427 13.4905 11.1549 13.4905 8.20939C13.4905 5.26387 11.1027 2.87606 8.15713 2.87606C6.32394 2.87606 4.70678 3.80095 3.7468 5.20955L5.49046 5.20939V6.54272H1.49046V2.54272H2.8238L2.82372 4.20884C4.04002 2.58989 5.97628 1.54272 8.15713 1.54272ZM8.8238 4.87606L8.82366 7.93272L10.9855 10.095L10.0427 11.0378L7.49033 8.48472L7.49046 4.87606H8.8238Z" fill="currentcolor"/>
</svg>
