<svg width="16" height="16" viewBox="0 0 16 16" fill="none" xmlns="http://www.w3.org/2000/svg">
<path d="M12.0208 11.0775L14.876 13.9327L13.9332 14.8755L11.078 12.0203C10.0514 12.8417 8.7495 13.333 7.3335 13.333C4.0215 13.333 1.3335 10.645 1.3335 7.33301C1.3335 4.02101 4.0215 1.33301 7.3335 1.33301C10.6455 1.33301 13.3335 4.02101 13.3335 7.33301C13.3335 8.74901 12.8422 10.0509 12.0208 11.0775ZM10.6833 10.5829C11.4985 9.74274 12.0002 8.59674 12.0002 7.33301C12.0002 4.75467 9.91183 2.66634 7.3335 2.66634C4.75516 2.66634 2.66683 4.75467 2.66683 7.33301C2.66683 9.91134 4.75516 11.9997 7.3335 11.9997C8.59723 11.9997 9.74323 11.498 10.5834 10.6828L10.6833 10.5829Z" fill="currentcolor"/>
</svg>
